<svg xmlns="http://www.w3.org/2000/svg" xmlns:xlink="http://www.w3.org/1999/xlink" viewBox="0 0 104.89 10.19"><defs><style>.cls-1{fill:url(#linear-gradient);}</style><linearGradient id="linear-gradient" x1="-151.18" y1="10.83" x2="200.82" y2="10.83" gradientTransform="matrix(1, 0, 0, -1, 0, 15.93)" gradientUnits="userSpaceOnUse"><stop offset="0.43" stop-color="#009fe3"/><stop offset="0.61" stop-color="#fff"/><stop offset="0.8" stop-color="#e30613"/></linearGradient></defs><title>banner-text-special</title><g id="Layer_2" data-name="Layer 2"><g id="Layer_1-2" data-name="Layer 1"><path class="cls-1" d="M0,10V.2H5.92V1.26H1.18V4.55H5.54V5.61H1.18V10Zm11.1.19A4.33,4.33,0,0,1,9.2,9.8,2.89,2.89,0,0,1,7.94,8.64a3.79,3.79,0,0,1-.45-1.92V.2H8.65V6.73A2.35,2.35,0,0,0,9.3,8.54a2.54,2.54,0,0,0,1.8.6,2.55,2.55,0,0,0,1.81-.6,2.35,2.35,0,0,0,.64-1.81V.2h1.18V6.72a3.79,3.79,0,0,1-.45,1.92A2.86,2.86,0,0,1,13,9.8,4.4,4.4,0,0,1,11.1,10.19ZM16.88,10V.2h2.29l3.41,9.05h.18V.2h1.17V10H21.64L18.24.92h-.19V10Zm12,0,3-9.8h2.08L37,10H35.73L35,7.52H30.8L30.05,10ZM31.1,6.45h3.57L33,.91h-.2ZM38.46,10V3.15h1.08V4h.19a1.27,1.27,0,0,1,.56-.66,2.06,2.06,0,0,1,1-.21h.81v1h-.88A1.73,1.73,0,0,0,40,4.55a1.63,1.63,0,0,0-.44,1.27V10Zm8.17.19a3.68,3.68,0,0,1-1.82-.43,3.12,3.12,0,0,1-1.22-1.25,3.8,3.8,0,0,1-.44-1.85V6.5a3.88,3.88,0,0,1,.44-1.87,3.09,3.09,0,0,1,1.2-1.23A3.45,3.45,0,0,1,46.56,3a3.37,3.37,0,0,1,1.7.42,2.89,2.89,0,0,1,1.17,1.18,3.72,3.72,0,0,1,.42,1.81v.5H44.26A2.41,2.41,0,0,0,45,8.6a2.36,2.36,0,0,0,1.67.61A2,2,0,0,0,48,8.81a2.76,2.76,0,0,0,.73-1l.95.46a3.72,3.72,0,0,1-.59.87,2.9,2.9,0,0,1-1,.73A3.47,3.47,0,0,1,46.63,10.19ZM44.27,6h4.46a2.06,2.06,0,0,0-.66-1.48,2.15,2.15,0,0,0-1.51-.54A2.21,2.21,0,0,0,45,4.47,2.4,2.4,0,0,0,44.27,6ZM51.78,10V3.15h1.07V4.31h.2a2.3,2.3,0,0,1,.76-.88A2.62,2.62,0,0,1,55.4,3a2.78,2.78,0,0,1,1.37.33,2.36,2.36,0,0,1,1,.95,3,3,0,0,1,.37,1.55V10H57V5.94a1.89,1.89,0,0,0-.52-1.49A1.93,1.93,0,0,0,55.12,4a2.16,2.16,0,0,0-1.62.64,2.69,2.69,0,0,0-.62,1.92V10Zm10.68.19a3.24,3.24,0,0,1-1.3-.25,2.1,2.1,0,0,1-.92-.73,1.92,1.92,0,0,1-.34-1.16,1.83,1.83,0,0,1,.34-1.15,1.94,1.94,0,0,1,.92-.68A3.45,3.45,0,0,1,62.48,6h2.31V5.47a1.51,1.51,0,0,0-.44-1.14,1.71,1.71,0,0,0-1.26-.42,1.9,1.9,0,0,0-1.29.4,2.09,2.09,0,0,0-.63,1.07l-1-.34a3.1,3.1,0,0,1,.53-1,2.46,2.46,0,0,1,1-.75A3.32,3.32,0,0,1,63.11,3a2.86,2.86,0,0,1,2,.69,2.48,2.48,0,0,1,.73,1.9v3.1q0,.42.39.42h.63V10h-1a1.08,1.08,0,0,1-.74-.26.93.93,0,0,1-.28-.7V9h-.17a2.82,2.82,0,0,1-.42.56,1.87,1.87,0,0,1-.7.47A2.93,2.93,0,0,1,62.46,10.19Zm.13-.95a2.2,2.2,0,0,0,1.58-.57A2.18,2.18,0,0,0,64.79,7V6.87H62.52a1.85,1.85,0,0,0-1.09.3A.94.94,0,0,0,61,8a1.06,1.06,0,0,0,.43.9A2,2,0,0,0,62.59,9.24Zm12.92.95a3.81,3.81,0,0,1-2.79-1,4,4,0,0,1-1-3V4a4,4,0,0,1,1-3,3.82,3.82,0,0,1,2.79-1,3.49,3.49,0,0,1,2.66,1,3.6,3.6,0,0,1,.94,2.64v.07H78V3.57a2.64,2.64,0,0,0-.61-1.81,2.25,2.25,0,0,0-1.83-.71,2.52,2.52,0,0,0-2,.77A3,3,0,0,0,72.86,4V6.24a3.12,3.12,0,0,0,.7,2.15,2.55,2.55,0,0,0,2,.75,2.24,2.24,0,0,0,1.83-.7A2.67,2.67,0,0,0,78,6.62V6.4h1.16v.18a3.64,3.64,0,0,1-.94,2.65A3.52,3.52,0,0,1,75.51,10.19ZM81,10V.2H82.1v4h.19a2.2,2.2,0,0,1,.42-.57,2.32,2.32,0,0,1,.75-.46A3,3,0,0,1,84.62,3,2.81,2.81,0,0,1,86,3.36a2.36,2.36,0,0,1,1,.95,3,3,0,0,1,.37,1.54V10H86.23V5.94a1.89,1.89,0,0,0-.52-1.49A1.93,1.93,0,0,0,84.34,4a2.18,2.18,0,0,0-1.63.64,2.68,2.68,0,0,0-.61,1.92V10Zm11.72.19a3.64,3.64,0,0,1-1.81-.43,3.12,3.12,0,0,1-1.22-1.25,3.8,3.8,0,0,1-.44-1.85V6.5a3.88,3.88,0,0,1,.44-1.87,3.09,3.09,0,0,1,1.2-1.23A3.43,3.43,0,0,1,92.65,3a3.37,3.37,0,0,1,1.7.42,2.81,2.81,0,0,1,1.16,1.18,3.72,3.72,0,0,1,.42,1.81v.5H90.35a2.44,2.44,0,0,0,.71,1.74,2.4,2.4,0,0,0,1.68.61,2,2,0,0,0,1.36-.4,2.76,2.76,0,0,0,.73-1l1,.46a3.72,3.72,0,0,1-.59.87,2.9,2.9,0,0,1-1,.73A3.49,3.49,0,0,1,92.71,10.19ZM90.36,6h4.46a2.06,2.06,0,0,0-.66-1.48,2.17,2.17,0,0,0-1.51-.54,2.25,2.25,0,0,0-1.55.54A2.39,2.39,0,0,0,90.36,6Zm11.3,4.24a3,3,0,0,1-1.67-.4,2.57,2.57,0,0,1-.85-.93h-.2V10H97.86V.2H99v4h.2a2,2,0,0,1,.47-.6,2.25,2.25,0,0,1,.8-.48,3.39,3.39,0,0,1,1.22-.2,3.07,3.07,0,0,1,1.62.44,3,3,0,0,1,1.18,1.22,3.77,3.77,0,0,1,.43,1.87v.18a3.78,3.78,0,0,1-.45,1.89,3,3,0,0,1-1.17,1.22A3.17,3.17,0,0,1,101.66,10.19Zm-.3-1a2.31,2.31,0,0,0,1.73-.67,2.63,2.63,0,0,0,.67-1.9V6.51a2.59,2.59,0,0,0-.67-1.89,2.29,2.29,0,0,0-1.73-.69,2.34,2.34,0,0,0-1.73.69A2.55,2.55,0,0,0,99,6.51v.13a2.59,2.59,0,0,0,.67,1.9A2.36,2.36,0,0,0,101.36,9.21Z"/></g></g></svg>