<svg xmlns="http://www.w3.org/2000/svg" viewBox="0 0 155.17 715.83"><defs><style>.cls-1{fill:#009fe3;}.cls-2{fill:#e30613;}</style></defs><title>fun-text</title><g id="Layer_2" data-name="Layer 2"><g id="Layer_1-2" data-name="Layer 1"><path class="cls-1" d="M91.41,177.46V86.93l30.35,9.61v98.14l33.41,10V9.61l-18,32.05L1.54,0V59.29L57.61,76.51V167Z"/><path class="cls-1" d="M155.17,715.83V657l-41.48-11.22c12.29,27.64,25.74,51.27,40.72,69.7Z"/><path class="cls-1" d="M119.45,540v2.4l-38,8.41c5.38,20,11.14,39.26,17.28,57.28l56.46-12.81V460.66l-17.28,30-73.36-22q5.18,31.24,11.52,60.09Z"/><path class="cls-2" d="M1.15,449.05v58.88l39.18,10.82c-3.07-19.23-5.76-39.26-7.3-59.69Z"/><path class="cls-2" d="M36.87,624.5v-2.4l26.51-6A513.76,513.76,0,0,1,48,558.4L1.15,568.82V669l104.48,31.65C92.18,685,79.89,661.75,69.52,633.31Z"/><path class="cls-1" d="M155.17,440.23V381.35L55.31,350.91a9.2,9.2,0,0,0-2.69-.81q1.73,30.64,4.61,60.09Z"/><path class="cls-1" d="M53.39,278.4l101.78,30.84V213.11l-18.43,31.64L52.62,219.52C51.47,238.74,51.08,258,50.7,278A5.5,5.5,0,0,1,53.39,278.4Z"/><path class="cls-2" d="M43.79,217.11C13.06,209.5,0,220.32,0,301.23c0,50.48,6.91,80.52,29.58,96.94-.39-9.21-.39-18-.39-27.24A839.86,839.86,0,0,1,43.79,217.11Z"/></g></g></svg>