<svg xmlns="http://www.w3.org/2000/svg" viewBox="0 0 16 16"><defs><style>.cls-1{fill:none;stroke:#fff;stroke-linecap:round;stroke-width:2px;}</style></defs><title>phone-ico</title><g id="Layer_2" data-name="Layer 2"><g id="Layer_1-2" data-name="Layer 1"><path class="cls-1" d="M5.79,3.11,5.48,2.4A3.62,3.62,0,0,0,5,1.54a1.59,1.59,0,0,0-.73-.47,3.41,3.41,0,0,0-1-.07,3.57,3.57,0,0,0-1.41.14,1.65,1.65,0,0,0-.83.91,3.05,3.05,0,0,0,0,1.31q1,10.56,11.58,11.58a3.05,3.05,0,0,0,1.31,0,1.65,1.65,0,0,0,.91-.83A3.57,3.57,0,0,0,15,12.69a3.41,3.41,0,0,0-.07-1,1.59,1.59,0,0,0-.47-.73,3.62,3.62,0,0,0-.86-.46l-.71-.31a3.84,3.84,0,0,0-1-.36,1.62,1.62,0,0,0-.72.1,3.92,3.92,0,0,0-.86.62,3.16,3.16,0,0,1-.88.61,1.56,1.56,0,0,1-.77.08,2.68,2.68,0,0,1-.88-.37A5.76,5.76,0,0,1,5.11,8.22a2.68,2.68,0,0,1-.37-.88,1.56,1.56,0,0,1,.08-.77,3.16,3.16,0,0,1,.61-.88,3.92,3.92,0,0,0,.62-.86,1.62,1.62,0,0,0,.1-.72A3.84,3.84,0,0,0,5.79,3.11Z"/></g></g></svg>