<svg xmlns="http://www.w3.org/2000/svg" viewBox="0 0 14.83 12.83"><defs><style>.cls-1{fill:none;stroke:#fff;stroke-linejoin:round;stroke-width:1.5px;}</style></defs><title>email-ico</title><g id="Layer_2" data-name="Layer 2"><g id="Layer_1-2" data-name="Layer 1"><path class="cls-1" d="M.75,2.42,5.36,5c1.7,1,2.42,1,4.11,0l4.61-2.61"/><path class="cls-1" d="M.76,7.4c0,2,.07,3.07.82,3.82s1.8.79,3.9.84c1.3,0,2.58,0,3.87,0,2.1-.05,3.15-.08,3.9-.84s.78-1.78.82-3.82c0-.66,0-1.31,0-2,0-2-.06-3.06-.82-3.82S11.45.83,9.35.77c-1.29,0-2.57,0-3.87,0-2.1.06-3.15.08-3.9.84S.8,3.39.76,5.43C.75,6.09.75,6.74.76,7.4Z"/></g></g></svg>