<svg xmlns="http://www.w3.org/2000/svg" viewBox="0 0 12.7 17.5"><defs><style>.cls-1{fill:none;stroke:#fff;stroke-linejoin:round;stroke-width:1.5px;}</style></defs><title>fb-ico</title><g id="Layer_2" data-name="Layer 2"><g id="Layer_1-2" data-name="Layer 1"><path class="cls-1" d="M1.7,7.42c-.79,0-.95.15-.95.89V9.64c0,.73.16.89,1,.89H3.59v5.33c0,.74.16.89.94.89H6.42c.78,0,1-.15,1-.89V10.53H9.49c.59,0,.75-.11.91-.65l.41-1.33c.27-.92.1-1.13-.91-1.13H7.37V5.19a.91.91,0,0,1,.94-.88H11c.79,0,.95-.16.95-.89V1.64C12,.9,11.79.75,11,.75H8.31A4.59,4.59,0,0,0,3.59,5.19V7.42Z"/></g></g></svg>