<svg xmlns="http://www.w3.org/2000/svg" viewBox="0 0 125.06 40.39"><defs><style>.cls-1{fill:#009fe3;}.cls-2{fill:#e30613;}.cls-3{fill:#d9d9d9;}</style></defs><title>header-logo</title><g id="Layer_2" data-name="Layer 2"><g id="Layer_1-2" data-name="Layer 1"><path class="cls-1" d="M33.36,11.34H17.94l1.64-5.4H36.3L38,0H4.78l5.45,3.21L3.14,27.33h10.1l2.93-10H31.59Z"/><path class="cls-1" d="M125.06,0H115l-1.91,7.38A52.92,52.92,0,0,0,125,.14Z"/><path class="cls-1" d="M95.11,6.35h.41L97,13.12c3.41-1,6.69-2,9.76-3.08L104.52,0H81.6l5.12,3.07L83,16.13q5.33-.93,10.24-2Z"/><path class="cls-2" d="M79.62,27.4h10l1.84-7c-3.27.55-6.68,1-10.16,1.3Z"/><path class="cls-2" d="M109.5,21.05h-.4l-1-4.72a83.55,83.55,0,0,1-9.82,2.73L100,27.4h17.06l5.39-18.59A37.19,37.19,0,0,1,111,15.24Z"/><path class="cls-1" d="M78.12,0h-10L62.91,17.77a1.68,1.68,0,0,0-.14.47Q68,17.94,73,17.42Z"/><path class="cls-1" d="M50.56,18.11,55.81,0H39.44l5.39,3.28-4.3,15c3.27.21,6.55.28,10,.35A1,1,0,0,1,50.56,18.11Z"/><path class="cls-2" d="M40.12,19.82c-1.3,5.46.54,7.79,14.33,7.79,8.59,0,13.71-1.23,16.51-5.27-1.57.07-3.07.07-4.64.07A137.37,137.37,0,0,1,40.12,19.82Z"/><path class="cls-3" d="M92.18,40.18h2.11l.48-1.64H92.65Z"/><path class="cls-3" d="M17.53,33.21H10.78l1.57,1-1.77,6.08h2.59l.54-1.85h2c.75,0,1,.35.82.89l-.27,1h2.45l.41-1.44c.21-.82-.34-1.23-1.36-1.23v-.07c1.91-.34,2.11-1,2.46-2.18C20.74,33.55,19.79,33.21,17.53,33.21Zm0,2.46c-.2.82-.27,1.09-1.36,1.09h-2l.55-1.91h1.91C17.53,34.85,17.67,35,17.53,35.67Z"/><path class="cls-3" d="M38.89,33.21l-1.43,5.4h-.07l-1.23-5.4H30.29l1.3.82-1.77,6.22h2.52l1.43-5.4h.14l1.16,5.4h4.37l2-7Z"/><path class="cls-3" d="M45.85,33.21H43.19l1.43.82-4.37,6.15h2.67L43.73,39h3.48l.14,1.23h2.59l-.88-7H45.85Zm-1.16,4.44,2.05-3.07L47,37.65Z"/><path class="cls-3" d="M5.59,33.21H2.93L4.37,34,0,40.18H2.66L3.48,39H7l.14,1.23H9.69l-.89-7ZM4.43,37.65l2.05-3.07.27,3.07Z"/><path class="cls-3" d="M22.79,33.21H21.15l1.37.82-1.78,6.22h7l.48-1.57H23.74l.41-1.37h4.1l.41-1.3h-4.1l.34-1.3h4.37l.48-1.5h-7Z"/><path class="cls-3" d="M60.86,37.65l-.07.21a2.6,2.6,0,0,1-1.5,2,6.49,6.49,0,0,1-3.21.55c-2.66,0-4.57-.07-3.82-2.67l.55-1.85c.68-2.32,2.52-2.66,5.32-2.66s3.82.2,3.27,2.32l-.06.28H58.68l.06-.28c.14-.61-.47-.68-1.36-.68-1.5,0-1.71.34-2,1.3l-.34,1.09c-.34,1-.34,1.44,1.16,1.44,1.09,0,1.57-.07,1.84-.89l.07-.21h2.73Z"/><path class="cls-3" d="M70.34,40.25H67.75l.82-2.74H65.23l-.82,2.74h-2.6L63.66,34l-1.44-.82h4.23l-.75,2.66h3.35l.75-2.66h2.59Z"/><path class="cls-3" d="M82.76,33.21h6.75c1.91,0,3,.27,2.53,1.78a2.08,2.08,0,0,1-2,1.64v.06c1.43.07,1.5.69,1.23,1.58-.48,1.71-1.71,2-3.75,2H82.42l1.84-6.15Zm2.66,5.47h2c.82,0,1.23-.14,1.36-.69s-.13-.68-1-.68h-2ZM86.17,36H88c.89,0,1.16-.14,1.3-.68s.07-.55-.61-.62H86.51Z"/><path class="cls-3" d="M75,33.21H73.34l1.37.82-1.77,6.22h7l.48-1.57h-4.5l.41-1.37h4.09l.41-1.3H76.69l.41-1.3h4.36l.48-1.5H75Z"/><path class="cls-3" d="M104.87,37.58l-.07.21a2.63,2.63,0,0,1-1.5,2,6.46,6.46,0,0,1-3.21.48c-2.59,0-4.5-.07-3.75-2.67l.54-1.77c.69-2.33,2.53-2.67,5.33-2.67s3.82.21,3.27,2.32l-.07.28h-2.66l.07-.28c.14-.61-.48-.68-1.37-.68-1.43,0-1.7.34-2,1.3l-.35,1.09c-.34,1-.34,1.44,1.16,1.44,1.1,0,1.57-.07,1.85-.89l.07-.21h2.66Z"/><path class="cls-3" d="M115,34.85l-5.73,3.76v.07h4.64l-.48,1.64h-7.91l.48-1.57L111.62,35v-.07h-4.23l.48-1.64h7.57Z"/></g></g></svg>