<svg xmlns="http://www.w3.org/2000/svg" viewBox="0 0 24.83 24.83"><defs><style>.cls-1,.cls-2{fill:none;stroke:#d9d9d9;stroke-width:1.5px;}.cls-1{stroke-linecap:round;stroke-linejoin:round;}</style></defs><title>ico-language</title><g id="Layer_2" data-name="Layer 2"><g id="Layer_1-2" data-name="Layer 1"><path class="cls-1" d="M.75,12.42a10.46,10.46,0,0,0,.6,3.5m0,0h9.9m-9.9,0a10.51,10.51,0,0,0,9.9,7c-1.8,0-3.29-4.09-3.48-9.34M13.6,8.92h9.9m0,0a10.5,10.5,0,0,0-9.9-7c1.87,0,3.39,4.39,3.49,9.91M23.5,8.92a10.1,10.1,0,0,1,.58,2.91"/><path class="cls-2" d="M.75,4.6A6.45,6.45,0,0,1,1,2.18,2.4,2.4,0,0,1,2.1,1,5.52,5.52,0,0,1,4.38.75h1c2.2,0,3.3,0,4,.72s.68,1.89.68,4.23V8.33c0,1,0,1.53-.3,1.7s-.71-.11-1.51-.67l-.12-.09a5.1,5.1,0,0,0-1.21-.72,4.45,4.45,0,0,0-1.38-.11H4.38A5.52,5.52,0,0,1,2.1,8.21,2.38,2.38,0,0,1,1,7,6.48,6.48,0,0,1,.75,4.6Z"/><path class="cls-2" d="M24.08,18.6a6.45,6.45,0,0,0-.22-2.42A2.43,2.43,0,0,0,22.74,15a5.58,5.58,0,0,0-2.29-.23h-1c-2.2,0-3.3,0-4,.72s-.68,1.89-.68,4.23v2.63c0,1,0,1.53.31,1.7s.71-.11,1.5-.67l.13-.09a4.9,4.9,0,0,1,1.2-.72,4.45,4.45,0,0,1,1.38-.11h1.18a5.58,5.58,0,0,0,2.29-.23A2.41,2.41,0,0,0,23.86,21,6.48,6.48,0,0,0,24.08,18.6Z"/></g></g></svg>