<svg xmlns="http://www.w3.org/2000/svg" xmlns:xlink="http://www.w3.org/1999/xlink" viewBox="0 0 14.17 14.17"><defs><style>.cls-1,.cls-3,.cls-4,.cls-5{fill:none;}.cls-2{clip-path:url(#clip-path);}.cls-3,.cls-4,.cls-5{stroke:#fff;}.cls-3,.cls-5{stroke-linejoin:round;}.cls-3,.cls-4{stroke-width:1.5px;}.cls-5{stroke-linecap:round;stroke-width:2px;}</style><clipPath id="clip-path" transform="translate(-0.92 -0.92)"><rect class="cls-1" width="16" height="16"/></clipPath></defs><title>insta-ico</title><g id="Layer_2" data-name="Layer 2"><g id="Layer_1-2" data-name="Layer 1"><g class="cls-2"><path class="cls-3" d="M1.67,8c0-3,0-4.48.92-5.41S5,1.67,8,1.67s4.48,0,5.41.92S14.33,5,14.33,8s0,4.48-.92,5.41S11,14.33,8,14.33s-4.48,0-5.41-.92S1.67,11,1.67,8Z" transform="translate(-0.92 -0.92)"/><path class="cls-4" d="M11,8A3,3,0,1,1,8,5,3,3,0,0,1,11,8Z" transform="translate(-0.92 -0.92)"/><path class="cls-5" d="M11.67,4.33h0" transform="translate(-0.92 -0.92)"/></g></g></g></svg>