<svg xmlns="http://www.w3.org/2000/svg" viewBox="0 0 13.5 13.5"><defs><style>.cls-1{fill:none;stroke:#fff;stroke-linecap:round;stroke-width:1.5px;}</style></defs><title>Asset 1</title><g id="Layer_2" data-name="Layer 2"><g id="Layer_1-2" data-name="Layer 1"><path class="cls-1" d="M4.86,2.56,4.59,2a3.23,3.23,0,0,0-.4-.74,1.29,1.29,0,0,0-.62-.4A2.92,2.92,0,0,0,2.73.75,3.07,3.07,0,0,0,1.52.87a1.47,1.47,0,0,0-.71.78,2.9,2.9,0,0,0,0,1.13q.87,9,9.92,9.92a2.72,2.72,0,0,0,1.13,0,1.47,1.47,0,0,0,.78-.71,3.07,3.07,0,0,0,.12-1.21,2.92,2.92,0,0,0-.06-.84,1.29,1.29,0,0,0-.4-.62,3.23,3.23,0,0,0-.74-.4l-.61-.27a2.91,2.91,0,0,0-.86-.3,1.43,1.43,0,0,0-.61.08A3.09,3.09,0,0,0,8.73,9,2.76,2.76,0,0,1,8,9.48a1.44,1.44,0,0,1-.65.07,2.43,2.43,0,0,1-.76-.32A5,5,0,0,1,4.27,6.94,2.43,2.43,0,0,1,4,6.18,1.44,1.44,0,0,1,4,5.53a2.76,2.76,0,0,1,.53-.76A3.09,3.09,0,0,0,5.08,4a1.43,1.43,0,0,0,.08-.61A2.91,2.91,0,0,0,4.86,2.56Z"/></g></g></svg>